<svg width="24" height="24" viewBox="0 0 24 24" fill="none" xmlns="http://www.w3.org/2000/svg">
<rect width="24" height="24" rx="12" fill="#0A0910"/>
<path d="M5 20V18.3333H18.3333V20H5ZM8.33333 16.6667C7.41667 16.6667 6.63194 16.3403 5.97917 15.6875C5.32639 15.0347 5 14.25 5 13.3333V5H18.3333C18.7917 5 19.184 5.16319 19.5104 5.48958C19.8368 5.81597 20 6.20833 20 6.66667V9.16667C20 9.625 19.8368 10.0174 19.5104 10.3438C19.184 10.6701 18.7917 10.8333 18.3333 10.8333H16.6667V13.3333C16.6667 14.25 16.3403 15.0347 15.6875 15.6875C15.0347 16.3403 14.25 16.6667 13.3333 16.6667H8.33333ZM8.33333 15H13.3333C13.7917 15 14.184 14.8368 14.5104 14.5104C14.8368 14.184 15 13.7917 15 13.3333V6.66667H6.66667V13.3333C6.66667 13.7917 6.82986 14.184 7.15625 14.5104C7.48264 14.8368 7.875 15 8.33333 15ZM16.6667 9.16667H18.3333V6.66667H16.6667V9.16667ZM8.33333 15H6.66667H15H8.33333Z" fill="#F6F5F9"/>
<path d="M9.737 8.92969L10.2126 9.4043L10.2829 9.47461L10.2126 9.5459L8.74969 11.0078L10.2038 12.4629L10.2751 12.5332L10.2038 12.6045L9.737 13.0703L9.66669 13.1416L9.59637 13.0703L7.59637 11.0703L7.52509 11L7.59637 10.9297L9.59637 8.92969L9.66669 8.8584L9.737 8.92969ZM12.404 8.92969L14.4743 11L12.404 13.0703L12.3337 13.1416L11.7878 12.5957L11.7165 12.5254L11.7878 12.4541L13.2497 10.9912L11.7253 9.4668L11.7956 9.39551L12.2624 8.92969L12.3337 8.8584L12.404 8.92969Z" fill="#F6F5F9" stroke="#F6F5F9" stroke-width="0.2"/>
</svg>
